<svg width="20" height="18" viewBox="0 0 20 18" fill="none" xmlns="http://www.w3.org/2000/svg">
<path d="M2.99954 18C3.79519 18 4.55826 17.6839 5.12087 17.1213C5.68347 16.5587 5.99955 15.7956 5.99955 15V12.16L14.9995 17.53C15.4969 17.8268 16.0653 17.9835 16.6445 17.9835C17.2238 17.9835 17.7922 17.8268 18.2895 17.53C18.8105 17.234 19.2433 16.8048 19.5438 16.2864C19.8443 15.7681 20.0016 15.1792 19.9995 14.58V3.42C20.0095 2.81141 19.855 2.21142 19.5523 1.68338C19.2495 1.15534 18.8098 0.718851 18.2795 0.42C17.7886 0.142237 17.2336 -0.00253677 16.6695 0C16.0808 0.00394058 15.5039 0.166286 14.9995 0.469999L5.99955 5.84V3C5.99955 2.20435 5.68347 1.44129 5.12087 0.878679C4.55826 0.316071 3.79519 0 2.99954 0C2.2039 0 1.44083 0.316071 0.878223 0.878679C0.315615 1.44129 -0.000455856 2.20435 -0.000455856 3V15C-0.000455856 15.7956 0.315615 16.5587 0.878223 17.1213C1.44083 17.6839 2.2039 18 2.99954 18ZM6.67955 7.77L15.9995 2.19C16.1923 2.07252 16.4138 2.01038 16.6395 2.01038C16.8653 2.01038 17.0867 2.07252 17.2795 2.19C17.4987 2.31177 17.6811 2.49016 17.8078 2.70652C17.9344 2.92289 18.0007 3.16929 17.9995 3.42V14.58C18.0053 14.8331 17.9423 15.083 17.8172 15.3031C17.6922 15.5232 17.5098 15.7053 17.2895 15.83C17.1005 15.9381 16.8872 15.9966 16.6695 16C16.4326 16.0025 16.1999 15.9366 15.9995 15.81L6.66955 10.23C6.46082 10.0997 6.28869 9.91843 6.16935 9.70325C6.05001 9.48807 5.9874 9.24606 5.9874 9C5.9874 8.75394 6.05001 8.51193 6.16935 8.29675C6.28869 8.08157 6.46082 7.9003 6.66955 7.77H6.67955ZM1.99954 3C1.99954 2.73478 2.1049 2.48043 2.29244 2.29289C2.47997 2.10536 2.73433 2 2.99954 2C3.26476 2 3.51912 2.10536 3.70665 2.29289C3.89419 2.48043 3.99954 2.73478 3.99954 3V15C3.99954 15.2652 3.89419 15.5196 3.70665 15.7071C3.51912 15.8946 3.26476 16 2.99954 16C2.73433 16 2.47997 15.8946 2.29244 15.7071C2.1049 15.5196 1.99954 15.2652 1.99954 15V3Z" fill="#EAF4F4"/>
</svg>
