<svg width="28" height="30" viewBox="0 0 28 30" fill="none" xmlns="http://www.w3.org/2000/svg">
<path d="M24.6504 9.9972L8.55036 0.763862C7.67917 0.260794 6.69035 -0.00274165 5.68435 2.15069e-05C4.67834 0.00278466 3.69099 0.271748 2.82257 0.779594C1.95415 1.28744 1.23561 2.01607 0.739932 2.89149C0.244251 3.76691 -0.0109133 4.75792 0.000357852 5.76386V24.2972C0.000357852 25.8089 0.600892 27.2587 1.66985 28.3277C2.73881 29.3967 4.18862 29.9972 5.70036 29.9972C6.70109 29.9955 7.68384 29.7311 8.55036 29.2305L24.6504 19.9972C25.5155 19.4965 26.2337 18.7771 26.733 17.9113C27.2323 17.0454 27.4952 16.0634 27.4952 15.0639C27.4952 14.0643 27.2323 13.0824 26.733 12.2165C26.2337 11.3506 25.5155 10.6312 24.6504 10.1305V9.9972ZM22.9837 16.9805L6.88369 26.3472C6.52284 26.5517 6.11514 26.6592 5.70036 26.6592C5.28558 26.6592 4.87788 26.5517 4.51703 26.3472C4.15719 26.1394 3.85839 25.8406 3.65066 25.4808C3.44294 25.1209 3.33362 24.7127 3.33369 24.2972V5.6972C3.33362 5.28169 3.44294 4.87349 3.65066 4.51363C3.85839 4.15377 4.15719 3.85495 4.51703 3.6472C4.87937 3.44579 5.28585 3.33701 5.70036 3.33053C6.11458 3.33903 6.52059 3.44768 6.88369 3.6472L22.9837 12.9472C23.3437 13.1549 23.6426 13.4536 23.8505 13.8135C24.0583 14.1734 24.1677 14.5816 24.1677 14.9972C24.1677 15.4128 24.0583 15.821 23.8505 16.1809C23.6426 16.5407 23.3437 16.8395 22.9837 17.0472V16.9805Z" fill="#232538"/>
</svg>
