<svg width="13" height="18" viewBox="0 0 13 18" fill="none" xmlns="http://www.w3.org/2000/svg">
<path d="M9.77778 17.7778C9.07053 17.7778 8.39226 17.4969 7.89216 16.9968C7.39206 16.4967 7.11111 15.8184 7.11111 15.1112V2.66672C7.11111 1.95948 7.39206 1.2812 7.89216 0.781101C8.39226 0.281004 9.07053 5.34058e-05 9.77778 5.34058e-05C10.485 5.34058e-05 11.1633 0.281004 11.6634 0.781101C12.1635 1.2812 12.4444 1.95948 12.4444 2.66672V15.1112C12.4444 15.8184 12.1635 16.4967 11.6634 16.9968C11.1633 17.4969 10.485 17.7778 9.77778 17.7778ZM10.6667 2.66672C10.6667 2.43097 10.573 2.20488 10.4063 2.03818C10.2396 1.87148 10.0135 1.77783 9.77778 1.77783C9.54203 1.77783 9.31594 1.87148 9.14924 2.03818C8.98254 2.20488 8.88889 2.43097 8.88889 2.66672V15.1112C8.88889 15.3469 8.98254 15.573 9.14924 15.7397C9.31594 15.9064 9.54203 16.0001 9.77778 16.0001C10.0135 16.0001 10.2396 15.9064 10.4063 15.7397C10.573 15.573 10.6667 15.3469 10.6667 15.1112V2.66672ZM2.66667 17.7778C1.95942 17.7778 1.28115 17.4969 0.781049 16.9968C0.280952 16.4967 0 15.8184 0 15.1112V2.66672C0 1.95948 0.280952 1.2812 0.781049 0.781101C1.28115 0.281004 1.95942 5.34058e-05 2.66667 5.34058e-05C3.37391 5.34058e-05 4.05219 0.281004 4.55229 0.781101C5.05238 1.2812 5.33333 1.95948 5.33333 2.66672V15.1112C5.33333 15.8184 5.05238 16.4967 4.55229 16.9968C4.05219 17.4969 3.37391 17.7778 2.66667 17.7778ZM3.55556 2.66672C3.55556 2.43097 3.4619 2.20488 3.29521 2.03818C3.12851 1.87148 2.90241 1.77783 2.66667 1.77783C2.43092 1.77783 2.20483 1.87148 2.03813 2.03818C1.87143 2.20488 1.77778 2.43097 1.77778 2.66672V15.1112C1.77778 15.3469 1.87143 15.573 2.03813 15.7397C2.20483 15.9064 2.43092 16.0001 2.66667 16.0001C2.90241 16.0001 3.12851 15.9064 3.29521 15.7397C3.4619 15.573 3.55556 15.3469 3.55556 15.1112V2.66672Z" fill="#2D3047"/>
</svg>
