<svg width="24" height="24" viewBox="0 0 24 24" fill="none" xmlns="http://www.w3.org/2000/svg">
<path d="M2.57199 2.57129C2.34466 2.57129 2.12664 2.66159 1.9659 2.82234C1.80515 2.98309 1.71484 3.2011 1.71484 3.42843V8.57129C1.71484 8.79862 1.80515 9.01663 1.9659 9.17738C2.12664 9.33813 2.34466 9.42843 2.57199 9.42843H7.71484C7.94217 9.42843 8.16019 9.33813 8.32094 9.17738C8.48168 9.01663 8.57199 8.79862 8.57199 8.57129C8.57199 8.34396 8.48168 8.12594 8.32094 7.9652C8.16019 7.80445 7.94217 7.71415 7.71484 7.71415H4.02913C5.4717 5.74357 8.40227 4.28557 11.7863 4.28557C15.3006 4.28557 17.8788 5.93557 19.8486 9.03157C19.9706 9.22344 20.1639 9.35895 20.3859 9.4083C20.6079 9.45765 20.8404 9.41679 21.0323 9.29472C21.2241 9.17264 21.3597 8.97935 21.409 8.75736C21.4583 8.53537 21.4175 8.30287 21.2954 8.111C19.066 4.61129 15.9863 2.57129 11.7863 2.57129C8.47342 2.57129 5.38084 3.80729 3.42913 5.783V3.42843C3.42913 3.2011 3.33882 2.98309 3.17808 2.82234C3.01733 2.66159 2.79932 2.57129 2.57199 2.57129ZM8.80084 11.1736C8.98152 11.2236 9.14081 11.3316 9.25429 11.4808C9.36777 11.63 9.42919 11.8124 9.42913 11.9999V20.5713C9.42913 20.7986 9.33882 21.0166 9.17808 21.1774C9.01733 21.3381 8.79931 21.4284 8.57199 21.4284C8.34466 21.4284 8.12664 21.3381 7.9659 21.1774C7.80515 21.0166 7.71484 20.7986 7.71484 20.5713V14.3441C7.32428 14.7073 6.8978 15.0298 6.44199 15.3067C6.24694 15.4238 6.01337 15.4586 5.79267 15.4035C5.57197 15.3483 5.3822 15.2078 5.26513 15.0127C5.14806 14.8177 5.11326 14.5841 5.16839 14.3634C5.22353 14.1427 5.36408 13.9529 5.55913 13.8359C6.25513 13.4193 6.8277 12.8501 7.23484 12.3701C7.44017 12.1273 7.63107 11.8725 7.80656 11.6073L7.83227 11.5661L7.83741 11.5584V11.5576C7.93399 11.3971 8.08048 11.2727 8.25446 11.2033C8.42845 11.134 8.62036 11.1235 8.80084 11.1736ZM12.556 12.8116C13.1817 11.777 14.212 11.1427 15.6331 11.1427C17.056 11.1427 18.0846 11.777 18.7103 12.8116C19.2974 13.7827 19.4903 15.0376 19.4903 16.2856C19.4903 17.5336 19.2974 18.7884 18.7103 19.7596C18.0846 20.7941 17.056 21.4284 15.6331 21.4284C14.2111 21.4284 13.1817 20.7941 12.556 19.7596C11.9697 18.7884 11.776 17.5336 11.776 16.2856C11.776 15.0376 11.9697 13.7827 12.556 12.8116ZM14.0234 13.6987C13.672 14.279 13.4903 15.167 13.4903 16.2856C13.4903 17.4041 13.672 18.2921 14.0234 18.8724C14.3354 19.3884 14.8051 19.7141 15.6331 19.7141C16.4611 19.7141 16.9317 19.3884 17.2437 18.8724C17.5951 18.2921 17.776 17.4041 17.776 16.2856C17.776 15.167 17.5943 14.279 17.2437 13.6987C16.9317 13.1827 16.4611 12.857 15.6331 12.857C14.8051 12.857 14.3354 13.1827 14.0234 13.6987Z" fill="#EAF4F4"/>
</svg>
